# This file uses centimeters as units for non-parametric coordinates.

mtllib Caja_Prueba_09.mtl
g default
v -5.000000 0.000000 5.000000
v 5.000000 0.000000 5.000000
v -5.000000 0.000000 -5.000000
v 5.000000 0.000000 -5.000000
v 0.999900 0.000000 5.000000
v -0.999900 0.000000 5.000000
v -0.999900 0.000000 -5.000000
v 0.999900 0.000000 -5.000000
v -0.999900 0.000000 0.999900
v -0.999900 0.000000 -0.999900
v 0.999900 0.000000 -0.999900
v 0.999900 0.000000 0.999900
v -5.000000 0.000000 0.999900
v -5.000000 0.000000 -0.999900
v 5.000000 0.000000 -0.999900
v 5.000000 0.000000 0.999900
v -5.000000 2.500000 4.999999
v -5.000000 2.500000 0.999900
v 5.000000 2.500000 4.999999
v 5.000000 2.500000 0.999900
v -5.000000 2.500000 -5.000000
v -0.999900 2.500000 -5.000000
v 0.999900 2.500000 -5.000000
v 5.000000 2.500000 -5.000000
v -5.000000 2.500000 -0.999900
v 5.000000 2.500000 -0.999900
v -9.779097 0.000000 -0.999900
v -9.779097 2.500000 -0.999900
v 9.779097 0.000000 -0.999900
v 9.779097 2.500000 -0.999900
v 5.500000 2.500000 4.999999
v 5.500000 2.500000 1.499900
v -5.500000 2.500000 4.999999
v -5.500000 2.500000 0.999900
v -5.500000 2.500000 -5.500000
v -0.999900 2.500000 -5.500000
v 0.999900 2.500000 -5.500000
v 5.500000 2.500000 -5.500000
v -5.500000 2.500000 -1.499900
v 5.500000 2.500000 -1.499900
v -9.779097 2.500000 -1.499900
v 9.779097 2.500000 -1.499900
v -9.779097 0.000000 0.999900
v 9.779097 0.000000 0.999900
v 5.000000 2.500000 0.999900
v 9.779097 2.500000 0.999900
v 9.779097 2.500000 1.499900
v 5.000000 2.500000 5.699999
v 5.500000 2.500000 5.699999
v -5.000000 2.500000 5.699999
v -5.500000 2.500000 5.699999
vt 0.000000 0.599990
vt 1.000000 0.400010
vt 0.400010 0.000000
vt 0.400010 0.400010
vt 0.599990 0.599990
vt 0.599990 1.000000
vt 0.400010 0.599990
vt 0.400010 1.000000
vt 0.000000 1.000000
vt 1.000000 0.599990
vt 1.000000 1.000000
vt 0.000000 0.000000
vt 0.000000 0.400010
vt 0.599990 0.400010
vt 0.599990 0.000000
vt 1.000000 0.000000
vt 0.000000 0.000000
vt 1.000000 0.000000
vt 1.000000 1.000000
vt 0.000000 1.000000
vt 0.000000 0.000000
vt 1.000000 0.000000
vt 1.000000 1.000000
vt 0.000000 1.000000
vt 0.000000 0.000000
vt 1.000000 0.000000
vt 1.000000 1.000000
vt 0.000000 1.000000
vt 0.000000 0.000000
vt 1.000000 0.000000
vt 1.000000 1.000000
vt 0.000000 1.000000
vt 0.000000 0.000000
vt 1.000000 0.000000
vt 1.000000 1.000000
vt 0.000000 1.000000
vt 0.000000 0.000000
vt 1.000000 0.000000
vt 1.000000 1.000000
vt 0.000000 1.000000
vt 0.000000 0.000000
vt 1.000000 0.000000
vt 1.000000 1.000000
vt 0.000799 0.999781
vt 0.000000 0.000000
vt 1.000000 0.000000
vt 0.996872 0.999143
vt 0.000000 1.000000
vt 0.000000 0.000000
vt 1.000000 0.000000
vt 1.000000 1.000000
vt 0.125231 0.980769
vt 0.000000 0.000000
vt 1.000000 0.000000
vt 1.000000 1.000000
vt 0.000000 1.000000
vt 0.000000 0.000000
vt 1.000000 0.000000
vt 1.000000 1.000000
vt -0.124607 0.980769
vt 0.000000 0.000000
vt 1.000000 0.000000
vt 1.124607 0.980769
vt 0.000000 1.000000
vt 0.000000 0.000000
vt 1.000000 0.000000
vt 1.028351 0.981965
vt 0.009837 0.974039
vt 0.000000 0.000000
vt 1.000000 0.000000
vt 0.901188 0.974913
vt -0.028351 0.981965
vt 0.000000 0.000000
vt 1.000000 0.000000
vt 0.895205 0.980769
vt 0.000000 1.000000
vt 0.000000 0.000000
vt 1.000000 0.000000
vt 1.000000 1.000000
vt 0.030376 0.979772
vt 0.000000 0.000000
vt 1.000000 0.000000
vt 1.514810 0.999533
vt 0.000000 1.000000
vt 0.000000 0.000000
vt 1.000000 0.000000
vt 1.000000 1.000000
vt 0.001247 0.999781
vt 0.000000 0.000000
vt 1.000000 0.000000
vt 0.969624 0.979772
vt 0.000000 1.000000
vt 0.000000 0.000000
vt 1.000000 0.000000
vt 1.000000 1.000000
vt 0.000000 1.000000
vt 0.000000 0.000000
vt 1.000000 0.000000
vt 1.000000 1.000000
vt 0.000000 1.000000
vn 0.000000 1.000000 0.000000
vn 0.000000 1.000000 0.000000
vn 0.000000 1.000000 0.000000
vn 0.000000 1.000000 0.000000
vn 0.000000 1.000000 0.000000
vn 0.000000 1.000000 0.000000
vn 0.000000 1.000000 0.000000
vn 0.000000 1.000000 0.000000
vn 0.000000 1.000000 0.000000
vn 0.000000 1.000000 0.000000
vn 0.000000 1.000000 0.000000
vn 0.000000 1.000000 0.000000
vn 0.000000 1.000000 0.000000
vn 0.000000 1.000000 0.000000
vn 0.000000 1.000000 0.000000
vn 0.000000 1.000000 0.000000
vn 1.000000 0.000000 0.000000
vn 1.000000 0.000000 0.000000
vn 1.000000 0.000000 0.000000
vn 1.000000 0.000000 0.000000
vn -1.000000 0.000000 0.000000
vn -1.000000 0.000000 0.000000
vn -1.000000 0.000000 0.000000
vn -1.000000 0.000000 0.000000
vn 0.000000 0.000000 1.000000
vn 0.000000 0.000000 1.000000
vn 0.000000 0.000000 1.000000
vn 0.000000 0.000000 1.000000
vn 0.000000 0.000000 1.000000
vn 0.000000 0.000000 1.000000
vn 0.000000 0.000000 1.000000
vn 0.000000 0.000000 1.000000
vn 1.000000 0.000000 0.000000
vn 1.000000 0.000000 0.000000
vn 1.000000 0.000000 0.000000
vn 1.000000 0.000000 0.000000
vn -1.000000 0.000000 0.000000
vn -1.000000 0.000000 0.000000
vn -1.000000 0.000000 0.000000
vn -1.000000 0.000000 0.000000
vn 0.000000 0.000000 1.000000
vn 0.000000 0.000000 1.000000
vn 0.000000 0.000000 1.000000
vn 0.000000 0.000000 1.000000
vn 0.000000 0.000000 1.000000
vn 0.000000 0.000000 1.000000
vn 0.000000 0.000000 1.000000
vn 0.000000 0.000000 1.000000
vn 0.000000 1.000000 0.000000
vn 0.000000 1.000000 0.000000
vn 0.000000 1.000000 0.000000
vn 0.000000 1.000000 0.000000
vn 0.000000 1.000000 0.000000
vn 0.000000 1.000000 0.000000
vn 0.000000 1.000000 0.000000
vn 0.000000 1.000000 0.000000
vn 0.000000 1.000000 0.000000
vn 0.000000 1.000000 0.000000
vn 0.000000 1.000000 0.000000
vn 0.000000 1.000000 0.000000
vn 0.000000 1.000000 0.000000
vn 0.000000 1.000000 0.000000
vn 0.000000 1.000000 0.000000
vn 0.000000 1.000000 0.000000
vn 0.000000 1.000000 0.000000
vn 0.000000 1.000000 0.000000
vn 0.000000 1.000000 0.000000
vn 0.000000 1.000000 0.000000
vn 0.000000 1.000000 0.000000
vn 0.000000 1.000000 0.000000
vn 0.000000 1.000000 0.000000
vn 0.000000 1.000000 0.000000
vn 0.000000 1.000000 0.000000
vn 0.000000 1.000000 0.000000
vn 0.000000 1.000000 0.000000
vn 0.000000 1.000000 0.000000
vn 0.000000 1.000000 0.000000
vn 0.000000 1.000000 0.000000
vn 0.000000 1.000000 0.000000
vn 0.000000 1.000000 0.000000
vn 0.000000 1.000000 0.000000
vn 0.000000 1.000000 0.000000
vn 0.000000 1.000000 0.000000
vn 0.000000 1.000000 0.000000
vn 0.000000 1.000000 0.000000
vn 0.000000 1.000000 0.000000
vn 0.000000 1.000000 0.000000
vn 0.000000 1.000000 0.000000
vn 0.000000 1.000000 0.000000
vn 0.000000 1.000000 0.000000
vn 0.000000 1.000000 0.000000
vn 0.000000 1.000000 0.000000
vn 0.000000 1.000000 0.000000
vn 0.000000 1.000000 0.000000
vn 0.000000 1.000000 0.000000
vn 0.000000 1.000000 0.000000
s 1
g pPlane3
usemtl initialShadingGroup
f 9/4/1 10/7/2 14/1/3 13/13/4
f 10/7/2 9/4/1 12/14/5 11/5/6
f 11/5/6 12/14/5 16/2/7 15/10/8
f 6/3/9 5/15/10 12/14/5 9/4/1
f 10/7/2 11/5/6 8/6/11 7/8/12
f 14/1/3 10/7/2 7/8/12 3/9/13
f 8/6/11 11/5/6 15/10/8 4/11/14
f 1/12/15 6/3/9 9/4/1 13/13/4
f 16/2/7 12/14/5 5/15/10 2/16/16
s off
f 1/17/17 13/18/18 18/19/19 17/20/20
f 16/21/21 2/22/22 19/23/23 20/24/24
f 3/25/25 7/26/26 22/27/27 21/28/28
f 8/29/29 4/30/30 24/31/31 23/32/32
f 14/33/33 3/34/34 21/35/35 25/36/36
f 4/37/37 15/38/38 26/39/39 24/40/40
f 14/41/41 25/42/42 28/43/43 27/44/44
f 26/45/45 15/46/46 29/47/47 30/48/48
s 2
f 20/49/49 19/50/50 31/51/51 32/52/52
s 3
f 17/53/53 18/54/54 34/55/55 33/56/56
s off
f 21/57/57 22/58/58 36/59/59 35/60/60
f 23/61/61 24/62/62 38/63/63 37/64/64
f 25/65/65 21/66/66 35/67/67 39/68/68
f 24/69/69 26/70/70 40/71/71 38/72/72
f 28/73/73 25/74/74 39/75/75 41/76/76
f 26/77/77 30/78/78 42/79/79 40/80/80
f 13/81/81 14/82/82 27/83/83 43/84/84
f 15/85/85 16/86/86 44/87/87 29/88/88
f 46/89/89 45/90/90 32/91/91 47/92/92
s 2
f 31/93/51 19/94/50 48/95/93 49/96/94
s 3
f 17/97/53 33/98/56 51/99/95 50/100/96
