# This file uses centimeters as units for non-parametric coordinates.

mtllib Parte negra.mtl
g default
v 5.500000 2.500000 -1.499900
v 18.765202 2.500000 -1.499900
v 5.500000 2.500000 -14.759050
v 18.765202 2.500000 -14.759050
v -19.072914 2.500000 -1.499900
v -5.500001 2.500000 -1.499900
v -19.072914 2.500000 -14.759050
v -5.500001 2.500000 -14.759050
v -19.057823 2.500000 14.211465
v -5.499999 2.500000 14.211465
v -19.057823 2.500000 1.499900
v -5.499999 2.500000 1.499900
v 5.500000 2.500000 14.211465
v 18.765202 2.500000 14.211465
v 5.500000 2.500000 1.499900
v 18.765202 2.500000 1.499900
vt 0.000000 0.000000
vt 1.000000 0.000000
vt 0.000000 1.000000
vt 1.000000 1.000000
vt 0.000000 0.000000
vt 1.000000 0.000000
vt 1.000000 1.000000
vt 0.000000 1.000000
vt 0.000000 0.000000
vt 1.000000 0.000000
vt 1.000000 1.000000
vt 0.000000 1.000000
vt 0.000000 0.000000
vt 1.000000 0.000000
vt 1.000000 1.000000
vt 0.000000 1.000000
vn 0.000000 1.000000 0.000000
vn 0.000000 1.000000 0.000000
vn 0.000000 1.000000 0.000000
vn 0.000000 1.000000 0.000000
vn 0.000000 1.000000 0.000000
vn 0.000000 1.000000 0.000000
vn 0.000000 1.000000 0.000000
vn 0.000000 1.000000 0.000000
vn 0.000000 1.000000 0.000000
vn 0.000000 1.000000 0.000000
vn 0.000000 1.000000 0.000000
vn 0.000000 1.000000 0.000000
vn 0.000000 1.000000 0.000000
vn 0.000000 1.000000 0.000000
vn 0.000000 1.000000 0.000000
vn 0.000000 1.000000 0.000000
s off
g pPlane8
usemtl initialShadingGroup
f 1/1/1 2/2/2 4/4/3 3/3/4
f 5/5/5 6/6/6 8/7/7 7/8/8
f 9/9/9 10/10/10 12/11/11 11/12/12
f 13/13/13 14/14/14 16/15/15 15/16/16
