# This file uses centimeters as units for non-parametric coordinates.

mtllib Coliseo.mtl
g default
v 4.500000 0.000000 -4.500000
v 5.500000 0.000000 -4.500000
v 4.500000 1.823385 -4.500000
v 5.500000 1.823385 -4.500000
v 4.500000 1.823385 -5.500000
v 5.500000 1.823385 -5.500000
v 4.500000 0.691613 -4.500000
v 4.561538 0.911693 -4.500000
v 4.500000 1.131773 -4.500000
v 5.500000 1.131773 -4.500000
v 5.438462 0.911693 -4.500000
v 5.500000 0.691613 -4.500000
v -5.500000 0.000000 -4.500000
v -4.500000 0.000000 -4.500000
v -5.500000 1.823385 -4.500000
v -4.500000 1.823385 -4.500000
v -5.500000 1.823385 -5.500000
v -4.500000 1.823385 -5.500000
v -5.500000 0.691613 -4.500000
v -5.438462 0.911693 -4.500000
v -5.500000 1.131773 -4.500000
v -4.500000 1.131773 -4.500000
v -4.561538 0.911693 -4.500000
v -4.500000 0.691613 -4.500000
v -5.500000 0.000000 5.500000
v -4.500000 0.000000 5.500000
v -5.500000 1.823385 5.500000
v -4.500000 1.823385 5.500000
v -5.500000 1.823385 4.500000
v -4.500000 1.823385 4.500000
v -5.500000 0.691613 5.500000
v -5.438462 0.911693 5.500000
v -5.500000 1.131773 5.500000
v -4.500000 1.131773 5.500000
v -4.561538 0.911693 5.500000
v -4.500000 0.691613 5.500000
v 4.500000 0.000000 5.500000
v 5.500000 0.000000 5.500000
v 4.500000 1.823385 5.500000
v 5.500000 1.823385 5.500000
v 4.500000 1.823385 4.500000
v 5.500000 1.823385 4.500000
v 4.500000 0.691613 5.500000
v 4.561538 0.911693 5.500000
v 4.500000 1.131773 5.500000
v 5.500000 1.131773 5.500000
v 5.438462 0.911693 5.500000
v 5.500000 0.691613 5.500000
vt 0.354188 0.645814
vt 0.354190 0.999998
vt 0.000006 1.000000
vt 0.354186 0.355194
vt 0.000004 0.645816
vt 0.000000 0.000002
vt 0.354184 0.000000
vt 0.000002 0.290622
vt 0.000002 0.355197
vt 0.354186 0.290619
vt 0.000002 0.322909
vt 0.354186 0.322907
vt 0.000002 0.355197
vt 0.354186 0.355194
vt 0.354188 0.645814
vt 0.000004 0.645816
vt 0.354190 0.999998
vt 0.000006 1.000000
vt 0.000000 0.000002
vt 0.354184 0.000000
vt 0.354186 0.290619
vt 0.000002 0.290622
vt 0.000002 0.322909
vt 0.354186 0.322907
vt 0.000002 0.355197
vt 0.354186 0.355194
vt 0.354188 0.645814
vt 0.000004 0.645816
vt 0.354190 0.999998
vt 0.000006 1.000000
vt 0.000000 0.000002
vt 0.354184 0.000000
vt 0.354186 0.290619
vt 0.000002 0.290622
vt 0.000002 0.322909
vt 0.354186 0.322907
vt 0.000002 0.355197
vt 0.354186 0.355194
vt 0.354188 0.645814
vt 0.000004 0.645816
vt 0.354190 0.999998
vt 0.000006 1.000000
vt 0.000000 0.000002
vt 0.354184 0.000000
vt 0.354186 0.290619
vt 0.000002 0.290622
vt 0.000002 0.322909
vt 0.354186 0.322907
vn 0.000000 0.000000 1.000000
vn 0.000000 0.000000 1.000000
vn 0.000000 0.000000 1.000000
vn 0.000000 0.000000 1.000000
vn 0.000000 1.000000 0.000000
vn 0.000000 1.000000 0.000000
vn 0.000000 1.000000 0.000000
vn 0.000000 1.000000 0.000000
vn 0.000000 0.000000 1.000000
vn 0.000000 0.000000 1.000000
vn 0.000000 0.000000 1.000000
vn 0.000000 0.000000 1.000000
vn 0.000000 0.000000 1.000000
vn 0.000000 0.000000 1.000000
vn 0.000000 0.000000 1.000000
vn 0.000000 0.000000 1.000000
vn 0.000000 0.000000 1.000000
vn 0.000000 0.000000 1.000000
vn 0.000000 1.000000 0.000000
vn 0.000000 1.000000 0.000000
vn 0.000000 1.000000 0.000000
vn 0.000000 1.000000 0.000000
vn 0.000000 0.000000 1.000000
vn 0.000000 0.000000 1.000000
vn 0.000000 0.000000 1.000000
vn 0.000000 0.000000 1.000000
vn 0.000000 0.000000 1.000000
vn 0.000000 0.000000 1.000000
vn 0.000000 0.000000 1.000000
vn 0.000000 0.000000 1.000000
vn 0.000000 0.000000 1.000000
vn 0.000000 0.000000 1.000000
vn 0.000000 1.000000 0.000000
vn 0.000000 1.000000 0.000000
vn 0.000000 1.000000 0.000000
vn 0.000000 1.000000 0.000000
vn 0.000000 0.000000 1.000000
vn 0.000000 0.000000 1.000000
vn 0.000000 0.000000 1.000000
vn 0.000000 0.000000 1.000000
vn 0.000000 0.000000 1.000000
vn 0.000000 0.000000 1.000000
vn 0.000000 0.000000 1.000000
vn 0.000000 0.000000 1.000000
vn 0.000000 0.000000 1.000000
vn 0.000000 0.000000 1.000000
vn 0.000000 1.000000 0.000000
vn 0.000000 1.000000 0.000000
vn 0.000000 1.000000 0.000000
vn 0.000000 1.000000 0.000000
vn 0.000000 0.000000 1.000000
vn 0.000000 0.000000 1.000000
vn 0.000000 0.000000 1.000000
vn 0.000000 0.000000 1.000000
vn 0.000000 0.000000 1.000000
vn 0.000000 0.000000 1.000000
s 1
g polySurface16
usemtl lambert3SG
f 9/9/1 10/4/2 4/1/3 3/5/4
s off
f 3/5/5 4/1/6 6/2/7 5/3/8
s 1
f 1/6/9 2/7/10 12/10/11 7/8/12
f 9/9/1 8/11/13 11/12/14 10/4/2
f 8/11/13 7/8/12 12/10/11 11/12/14
s 3
f 21/13/15 22/14/16 16/15/17 15/16/18
s off
f 15/16/19 16/15/20 18/17/21 17/18/22
s 3
f 13/19/23 14/20/24 24/21/25 19/22/26
f 21/13/15 20/23/27 23/24/28 22/14/16
f 20/23/27 19/22/26 24/21/25 23/24/28
s 5
f 33/25/29 34/26/30 28/27/31 27/28/32
s off
f 27/28/33 28/27/34 30/29/35 29/30/36
s 5
f 25/31/37 26/32/38 36/33/39 31/34/40
f 33/25/29 32/35/41 35/36/42 34/26/30
f 32/35/41 31/34/40 36/33/39 35/36/42
s 7
f 45/37/43 46/38/44 40/39/45 39/40/46
s off
f 39/40/47 40/39/48 42/41/49 41/42/50
s 7
f 37/43/51 38/44/52 48/45/53 43/46/54
f 45/37/43 44/47/55 47/48/56 46/38/44
f 44/47/55 43/46/54 48/45/53 47/48/56
g default
v -0.500000 0.000000 0.500000
v 0.500000 0.000000 0.500000
v -0.500000 0.274529 0.500000
v 0.500000 0.274529 0.500000
v -0.500000 0.274529 -0.500000
v 0.500000 0.274529 -0.500000
vt 0.000000 0.000102
vt 0.784524 0.000000
vt 0.000028 0.215476
vt 0.784552 0.215374
vt 0.000130 1.000000
vt 0.784654 0.999898
vn 0.000000 0.000000 1.000000
vn 0.000000 0.000000 1.000000
vn 0.000000 0.000000 1.000000
vn 0.000000 0.000000 1.000000
vn 0.000000 1.000000 0.000000
vn 0.000000 1.000000 0.000000
vn 0.000000 1.000000 0.000000
vn 0.000000 1.000000 0.000000
s off
g pCube1
usemtl lambert4SG
f 49/49/57 50/50/58 52/52/59 51/51/60
f 51/51/61 52/52/62 54/54/63 53/53/64
g default
v 4.255439 2.703122 -10.273539
v -4.255439 2.703122 -10.273539
v -10.273539 2.703122 -4.255439
v -10.273539 2.703122 4.255439
v -4.255439 2.703122 10.273539
v 4.255439 2.703122 10.273540
v 10.273540 2.703122 4.255439
v 10.273540 2.703122 -4.255440
v 4.089754 0.000000 -9.873539
v -4.089753 0.000000 -9.873539
v -9.873539 0.000000 -4.089753
v -9.873539 0.000000 4.089753
v -4.089753 0.000000 9.873539
v 4.089754 0.000000 9.873540
v 9.873540 0.000000 4.089754
v 9.873540 0.000000 -4.089754
v 4.089754 2.703122 -9.873539
v -4.089753 2.703122 -9.873539
v -9.873539 2.703122 -4.089753
v -9.873539 2.703122 4.089753
v -4.089753 2.703122 9.873539
v 4.089754 2.703122 9.873540
v 9.873540 2.703122 4.089754
v 9.873540 2.703122 -4.089754
v 0.750000 0.000000 10.273540
v -0.750000 0.000000 10.273540
v -0.750000 0.000000 9.873539
v 0.750000 0.000000 9.873539
v -0.750000 0.000000 15.000000
v 0.750000 0.000000 15.000000
v -0.750000 2.703122 10.273540
v -0.750000 2.703122 15.000000
v 0.750000 2.703122 10.273540
v 0.750000 2.703122 15.000000
v 1.250004 0.000000 9.873539
v -1.249994 0.000000 9.873539
v 0.000001 0.000000 0.000000
v -0.750000 0.000000 22.946045
v 0.750000 0.000000 22.946045
v -3.769241 0.000000 15.000000
v -3.769241 0.000000 22.946045
v 3.769241 0.000000 15.000000
v 3.769241 0.000000 22.946045
v -0.750000 2.703122 22.946045
v 0.750000 2.703122 22.946045
v -3.769241 2.703122 15.000000
v -3.769241 2.703122 22.946045
v 3.769241 2.703122 15.000000
v 3.769241 2.703122 22.946045
v -0.750000 2.703122 14.500000
v -4.269241 2.703122 14.500000
v 0.750000 2.703122 14.500000
v 4.269241 2.703122 14.500000
v -4.269241 2.703122 23.446045
v 4.269241 2.703122 23.446045
v -0.750000 2.703122 23.446045
v 0.750000 2.703122 23.446045
v 1.250005 2.703122 14.500000
v 1.250005 2.703122 15.000000
v 1.250005 0.000000 15.000000
v 1.250005 0.000000 22.946045
v 1.250005 2.703122 22.946045
v 1.250005 2.703122 23.446045
v 0.750000 0.000000 14.500000
v -0.750000 0.000000 14.500000
v -1.249997 2.703122 14.500000
v -1.249997 2.703122 23.446045
v -1.249997 2.703122 22.946045
v -1.249997 0.000000 22.946045
v -1.249997 0.000000 15.000000
v -1.249997 2.703122 15.000000
v -1.249997 2.703122 10.273540
v 1.250006 2.703122 10.273540
v -1.249997 2.703122 10.273540
v -1.249996 2.703122 9.873540
v 0.750000 2.703122 9.873539
v 0.750000 2.703122 10.273540
v 1.250006 2.703122 10.273540
v 1.250005 2.703122 9.873539
v 1.250005 2.703122 9.873539
v 1.250006 2.703122 10.273540
v -1.249996 2.703122 9.873540
v -1.249997 2.703122 10.273540
v -0.750000 2.703122 10.273540
v -0.750000 2.703122 9.873539
vt 0.686222 0.562245
vt 0.562115 0.438147
vt 0.337444 0.982363
vt 0.660945 0.982373
vt 0.562109 0.262639
vt 0.570358 0.266056
vt 0.686207 0.138533
vt 0.689624 0.146781
vt 0.861715 0.138527
vt 0.858298 0.146775
vt 0.985821 0.262625
vt 0.985827 0.438132
vt 0.977579 0.434716
vt 0.977573 0.266042
vt 0.861729 0.562239
vt 0.984446 0.982383
vt 0.161617 0.852067
vt 0.370619 0.852043
vt 0.518389 0.704240
vt 0.013947 0.875444
vt 0.246897 0.347482
vt 0.246896 0.337261
vt 0.285224 0.337257
vt 0.285225 0.347478
vt 0.285212 0.229263
vt 0.246884 0.229267
vt 0.246882 0.216491
vt 0.851162 0.807628
vt 0.298001 0.347476
vt 0.266089 0.599767
vt 0.013790 0.495295
vt 0.161560 0.347492
vt 0.234121 0.347484
vt 0.370562 0.347468
vt 0.518365 0.495238
vt 0.246859 0.013455
vt 0.285187 0.013451
vt 0.234084 0.013457
vt 0.809658 0.583161
vt 0.600464 0.583149
vt 0.169712 0.013464
vt 0.297986 0.216486
vt 0.297963 0.013449
vt 0.362334 0.013442
vt 0.362357 0.216478
vt 0.549002 0.103887
vt 0.549004 0.146957
vt 0.809659 0.583163
vt 0.600465 0.583147
vt 0.557550 0.103887
vt 0.557552 0.155504
vt 0.557549 0.061146
vt 0.557547 0.009529
vt 0.413156 0.146961
vt 0.404608 0.155509
vt 0.413152 0.018081
vt 0.404604 0.009533
vt 0.413154 0.069699
vt 0.413154 0.095343
vt 0.404606 0.095344
vt 0.404606 0.069699
vt 0.404607 0.103892
vt 0.413155 0.103891
vt 0.413153 0.061151
vt 0.404605 0.061151
vt 0.549001 0.069695
vt 0.557549 0.069694
vt 0.629806 0.069692
vt 0.557550 0.095339
vt 0.629807 0.095336
vt 0.851164 0.807627
vt 0.984450 0.875474
vt 0.660949 0.875464
vt 0.337448 0.875454
vt 0.013814 0.704297
vt 0.234106 0.216493
vt 0.169735 0.216500
vt 0.809643 0.807625
vt 0.600449 0.807610
vt 0.285210 0.216487
vt 0.851177 0.583164
vt 0.809645 0.807624
vt 0.600451 0.807612
vt 0.549001 0.061146
vt 0.548999 0.018077
vt 0.851178 0.583166
vt 0.549002 0.095339
vt 0.858312 0.553990
vt 0.689639 0.553996
vt 0.570364 0.434730
vt 0.013943 0.982352
vt 0.629807 0.103884
vt 0.629806 0.061144
vt 0.905540 0.182349
vt 0.899708 0.188182
vt 0.443067 0.260516
vt 0.443067 0.238959
vt 0.470014 0.238958
vt 0.470015 0.260516
vt 0.936163 0.224635
vt 0.941996 0.218802
vt 0.443067 0.260517
vt 0.443067 0.238958
vt 0.470014 0.238958
vt 0.470015 0.260516
vn 0.000000 1.000000 -0.000000
vn 0.000000 1.000000 0.000000
vn 0.000000 1.000000 0.000000
vn 0.000000 1.000000 -0.000000
vn 0.000000 1.000000 0.000000
vn 0.000000 1.000000 0.000000
vn 0.000000 1.000000 -0.000000
vn 0.000000 1.000000 -0.000000
vn 0.000000 1.000000 -0.000000
vn 0.000000 1.000000 -0.000000
vn 0.000000 1.000000 0.000000
vn 0.000000 1.000000 0.000000
vn 0.000000 1.000000 0.000000
vn 0.000000 1.000000 0.000000
vn 0.000000 1.000000 -0.000000
vn 0.000000 1.000000 -0.000000
vn 0.000000 0.000000 1.000000
vn 0.000000 0.000000 1.000000
vn 0.000000 0.000000 1.000000
vn 0.000000 0.000000 1.000000
vn -0.707107 0.000000 0.707107
vn -0.707107 0.000000 0.707107
vn -0.707107 0.000000 0.707107
vn -0.707107 0.000000 0.707107
vn 0.707107 0.000000 0.707107
vn 0.707107 0.000000 0.707107
vn 0.707107 0.000000 0.707107
vn 0.707107 0.000000 0.707107
vn 0.000000 1.000000 0.000001
vn 0.000000 1.000000 0.000001
vn 0.000000 1.000000 0.000001
vn 0.000000 1.000000 0.000001
vn 0.000000 1.000000 0.000000
vn 0.000000 1.000000 0.000000
vn 0.000000 1.000000 0.000000
vn 0.000000 1.000000 0.000000
vn 0.000000 1.000000 0.000000
vn 0.000000 1.000000 0.000000
vn 0.000000 1.000000 0.000000
vn 0.000000 1.000000 0.000000
vn 0.000000 1.000000 0.000000
vn 0.000000 1.000000 0.000000
vn 0.000000 1.000000 0.000000
vn 0.000000 1.000000 0.000000
vn 0.000000 1.000000 0.000000
vn 0.000000 1.000000 0.000000
vn 0.000000 1.000000 0.000000
vn 0.000000 1.000000 0.000000
vn 0.000000 1.000000 0.000000
vn 0.000000 1.000000 0.000000
vn 0.000000 1.000000 0.000000
vn 0.000000 1.000000 0.000000
vn 0.000000 1.000000 0.000000
vn 0.000000 1.000000 -0.000000
vn 0.000000 1.000000 0.000000
vn 0.000000 1.000000 -0.000000
vn 0.000000 1.000000 -0.000000
vn 0.000000 1.000000 0.000000
vn 0.000000 1.000000 0.000000
vn 0.000000 1.000000 -0.000000
vn 0.000000 1.000000 0.000000
vn 0.000000 1.000000 -0.000000
vn 0.000000 1.000000 -0.000000
vn 0.000000 1.000000 0.000000
vn 0.000000 1.000000 0.000000
vn 0.000000 1.000000 0.000000
vn 0.000000 1.000000 0.000000
vn 0.000000 1.000000 0.000000
vn 0.000000 1.000000 0.000000
vn 0.000000 1.000000 0.000000
vn 0.000000 1.000000 0.000000
vn 0.000000 1.000000 0.000000
vn 0.000000 1.000000 0.000000
vn 0.000000 1.000000 0.000000
vn 0.000000 1.000000 0.000000
vn 0.000000 1.000000 0.000000
vn 0.000000 1.000000 0.000000
vn 0.000000 0.000000 1.000000
vn 0.000000 0.000000 1.000000
vn 0.000000 0.000000 1.000000
vn 0.000000 0.000000 1.000000
vn 0.000000 0.000000 1.000000
vn 0.000000 0.000000 1.000000
vn 0.000000 0.000000 1.000000
vn 0.000000 0.000000 1.000000
vn 0.000000 1.000000 0.000000
vn 0.000000 1.000000 0.000000
vn 0.000000 1.000000 0.000000
vn 0.000000 1.000000 0.000000
vn 0.000000 1.000000 -0.000000
vn 0.000000 1.000000 -0.000000
vn 0.000000 1.000000 0.000000
vn 0.000000 1.000000 0.000000
vn 0.000000 1.000000 0.000000
vn 0.000000 1.000000 0.000000
vn 0.000000 1.000000 0.000000
vn 0.000000 1.000000 0.000000
vn 0.000000 1.000000 0.000000
vn 0.000000 1.000000 0.000000
vn 0.000000 1.000000 0.000000
vn 0.000000 1.000000 0.000000
vn 0.000000 1.000000 0.000000
vn 0.000000 1.000000 0.000000
vn 0.000000 1.000000 0.000000
vn 0.000000 1.000000 0.000000
vn 0.000000 1.000000 0.000000
vn 0.000000 1.000000 0.000000
vn 0.000000 1.000000 0.000000
vn 0.000000 1.000000 0.000000
vn 0.000000 1.000000 0.000000
vn 0.000000 1.000000 0.000000
vn 0.000000 1.000000 0.000000
vn 0.000000 1.000000 0.000000
vn 0.000000 1.000000 -0.000000
vn 0.000000 1.000000 -0.000000
vn 0.000000 0.000000 1.000000
vn 0.000000 0.000000 1.000000
vn 0.000000 1.000000 0.000000
vn 0.000000 1.000000 0.000000
vn 0.000000 1.000000 0.000000
vn 0.000000 1.000000 0.000000
vn 0.000000 1.000000 0.000000
vn 0.000000 1.000000 0.000000
vn 0.000000 1.000000 0.000000
vn 0.000000 1.000000 0.000000
vn 0.000000 1.000000 0.000000
vn 0.000000 1.000000 0.000000
vn 0.000000 0.000000 1.000000
vn 0.000000 0.000000 1.000000
vn 0.000000 1.000000 0.000000
vn 0.000000 1.000000 0.000000
s 1
g polySurface7
usemtl lambert2SG
f 55/55/65 56/56/66 72/144/67 71/143/68
f 56/56/66 57/59/69 73/60/70 72/144/67
f 57/59/69 58/61/71 74/62/72 73/60/70
f 58/61/71 59/63/73 75/64/74 74/62/72
f 60/65/75 61/66/76 77/67/77 76/68/78
f 61/66/76 62/69/79 78/142/80 77/67/77
f 62/69/79 55/55/65 71/143/68 78/142/80
s off
f 64/128/81 63/127/82 71/58/83 72/57/84
f 63/127/85 70/126/86 78/70/87 71/58/88
f 65/74/89 64/128/90 72/57/91 73/145/92
f 59/63/93 128/148/94 129/149/95 75/64/96
f 130/150/97 131/151/98 132/152/99 133/153/100
f 81/75/101 80/76/102 79/77/103 82/78/104
s 3
f 118/79/105 119/80/106 83/81/107 84/134/108
s off
f 134/154/109 135/155/110 60/65/111 76/68/112
f 136/156/113 137/157/114 138/158/115 139/159/116
s 4
f 89/83/117 91/84/118 82/78/119
f 64/71/120 65/129/121 91/84/118
f 91/84/118 65/129/121 66/85/122
f 91/84/118 66/85/122 67/86/123
f 91/84/118 67/86/123 90/87/124
f 91/84/118 90/87/124 81/75/125
f 91/84/118 81/75/125 82/78/119
f 68/88/126 91/84/118 89/83/117
f 69/89/127 91/84/118 68/88/126
f 70/73/128 91/84/118 69/89/127
f 63/72/129 91/84/118 70/73/128
f 64/71/120 91/84/118 63/72/129
s 6
f 84/134/130 83/81/131 92/90/132 93/91/133
f 123/92/134 124/130/135 94/131/136 95/95/137
f 114/96/138 115/97/139 97/98/140 96/99/141
s 7
f 94/94/142 124/93/143 125/136/144 100/137/145
s 8
f 113/102/146 114/132/147 96/133/148 102/103/149
s 9
f 100/101/150 125/100/151 120/104/152 105/105/153
s 10
f 112/106/154 113/138/155 102/139/156 107/107/157
s off
f 101/108/158 100/101/159 105/105/160 108/109/161
f 102/139/162 103/110/163 109/111/164 107/107/165
s 11
f 99/112/166 98/113/167 110/114/168 111/115/169
f 121/116/170 122/117/171 101/108/172 108/109/173
f 103/110/174 116/118/175 117/119/176 109/111/177
s 10
f 88/120/178 113/138/155 112/106/154 106/121/179
s 8
f 84/82/180 114/132/147 113/102/146 88/140/181
s 6
f 84/134/130 93/91/133 115/97/139 114/96/138
s 11
f 117/119/176 116/118/175 99/112/166 111/115/169
s off
f 87/122/182 106/121/183 112/106/184 127/147/185
s 3
f 79/77/186 80/76/187 119/80/106 118/79/105
s off
f 120/104/188 104/123/189 85/124/190 126/146/191
s 11
f 98/113/167 122/117/171 121/116/170 110/114/168
s 6
f 92/90/132 83/81/131 124/130/135 123/92/134
s 7
f 125/136/144 124/93/143 83/135/192 86/125/193
s 9
f 120/104/152 125/100/151 86/141/194 104/123/195
