# This file uses centimeters as units for non-parametric coordinates.

mtllib Octagono_03.mtl
g default
v 4.255439 0.000000 -10.273539
v -4.255439 0.000000 -10.273539
v -10.273539 0.000000 -4.255439
v -10.273539 0.000000 4.255439
v -4.255439 0.000000 10.273539
v 4.255439 0.000000 10.273540
v 10.273540 0.000000 4.255439
v 10.273540 0.000000 -4.255440
v 4.255439 3.173205 -10.273539
v -4.255439 1.359353 -10.273539
v -10.273539 1.359353 -4.255439
v -10.273539 1.359353 4.255439
v -4.255439 1.359353 10.273539
v 4.255439 3.173205 10.273540
v 10.273540 3.173205 4.255439
v 10.273540 3.173205 -4.255440
v 4.089754 0.000000 -9.873539
v -4.089753 0.000000 -9.873539
v -9.873539 0.000000 -4.089753
v -9.873539 0.000000 4.089753
v -4.089753 0.000000 9.873539
v 4.089754 0.000000 9.873540
v 9.873540 0.000000 4.089754
v 9.873540 0.000000 -4.089754
v 4.089754 3.173205 -9.873539
v -4.089753 1.359353 -9.873539
v -9.873539 1.359353 -4.089753
v -9.873539 1.359353 4.089753
v -4.089753 1.359353 9.873539
v 4.089754 3.173205 9.873540
v 9.873540 3.173205 4.089754
v 9.873540 3.173205 -4.089754
v 0.000001 0.000000 0.000000
vt 0.375000 0.312500
vt 0.406250 0.312500
vt 0.437500 0.312500
vt 0.468750 0.312500
vt 0.500000 0.312500
vt 0.531250 0.312500
vt 0.562500 0.312500
vt 0.593750 0.312500
vt 0.625000 0.312500
vt 0.375000 0.688440
vt 0.406250 0.688440
vt 0.437500 0.688440
vt 0.468750 0.688440
vt 0.500000 0.688440
vt 0.531250 0.688440
vt 0.562500 0.688440
vt 0.593750 0.688440
vt 0.625000 0.688440
vt 0.610485 0.733265
vt 0.500000 0.687500
vt 0.389515 0.733265
vt 0.343750 0.843750
vt 0.389515 0.954235
vt 0.500000 1.000000
vt 0.610485 0.954235
vt 0.656250 0.843750
vt 0.500000 0.000000
vt 0.610485 0.045765
vt 0.389515 0.045765
vt 0.343750 0.156250
vt 0.389515 0.266735
vt 0.500000 0.312500
vt 0.610485 0.266735
vt 0.656250 0.156250
vt 0.610485 0.954235
vt 0.500000 1.000000
vt 0.389515 0.954235
vt 0.343750 0.843750
vt 0.389515 0.733265
vt 0.500000 0.687500
vt 0.610485 0.733265
vt 0.656250 0.843750
vt 0.500000 0.156250
vn 0.000000 0.000000 -1.000000
vn 0.000000 0.000000 -1.000000
vn 0.000000 0.000000 -1.000000
vn 0.000000 0.000000 -1.000000
vn -0.707107 0.000000 -0.707107
vn -0.707107 0.000000 -0.707107
vn -0.707107 0.000000 -0.707107
vn -0.707107 0.000000 -0.707107
vn -1.000000 0.000000 0.000000
vn -1.000000 0.000000 0.000000
vn -1.000000 0.000000 0.000000
vn -1.000000 0.000000 0.000000
vn -0.707107 0.000000 0.707107
vn -0.707107 0.000000 0.707107
vn -0.707107 0.000000 0.707107
vn -0.707107 0.000000 0.707107
vn -0.000000 0.000000 1.000000
vn -0.000000 0.000000 1.000000
vn -0.000000 0.000000 1.000000
vn -0.000000 0.000000 1.000000
vn 0.707107 0.000000 0.707107
vn 0.707107 0.000000 0.707107
vn 0.707107 0.000000 0.707107
vn 0.707107 0.000000 0.707107
vn 1.000000 0.000000 0.000000
vn 1.000000 0.000000 0.000000
vn 1.000000 0.000000 0.000000
vn 1.000000 0.000000 0.000000
vn 0.707107 0.000000 -0.707107
vn 0.707107 0.000000 -0.707107
vn 0.707107 0.000000 -0.707107
vn 0.707107 0.000000 -0.707107
vn -0.119612 0.992821 -0.000000
vn -0.119612 0.992821 -0.000000
vn -0.099488 0.995039 -0.000000
vn -0.099488 0.995039 -0.000000
vn 0.000000 1.000000 -0.000000
vn 0.000000 1.000000 -0.000000
vn 0.000000 1.000000 0.000000
vn 0.000000 1.000000 0.000000
vn -0.119612 0.992821 -0.000000
vn -0.099488 0.995039 -0.000000
vn -0.119612 0.992821 -0.000000
vn -0.099488 0.995039 -0.000000
vn 0.000000 1.000000 -0.000000
vn 0.000000 1.000000 -0.000000
vn 0.000000 1.000000 -0.000000
vn 0.000000 1.000000 -0.000000
vn 0.000000 0.000000 1.000000
vn 0.000000 0.000000 1.000000
vn 0.000000 0.000000 1.000000
vn 0.000000 0.000000 1.000000
vn -0.707107 0.000000 0.707107
vn -0.707107 0.000000 0.707107
vn -0.707107 0.000000 0.707107
vn -0.707107 0.000000 0.707107
vn -1.000000 0.000000 0.000000
vn -1.000000 0.000000 0.000000
vn -1.000000 0.000000 0.000000
vn -1.000000 0.000000 0.000000
vn -0.707107 0.000000 -0.707107
vn -0.707107 0.000000 -0.707107
vn -0.707107 0.000000 -0.707107
vn -0.707107 0.000000 -0.707107
vn 0.000000 0.000000 -1.000000
vn 0.000000 0.000000 -1.000000
vn 0.000000 0.000000 -1.000000
vn 0.000000 0.000000 -1.000000
vn 0.707107 0.000000 -0.707107
vn 0.707107 0.000000 -0.707107
vn 0.707107 0.000000 -0.707107
vn 0.707107 0.000000 -0.707107
vn 1.000000 0.000000 0.000000
vn 1.000000 0.000000 0.000000
vn 1.000000 0.000000 0.000000
vn 1.000000 0.000000 0.000000
vn 0.707107 0.000000 0.707107
vn 0.707107 0.000000 0.707107
vn 0.707107 0.000000 0.707107
vn 0.707107 0.000000 0.707107
vn 0.000000 1.000000 0.000000
vn 0.000000 1.000000 -0.000000
vn 0.000000 1.000000 -0.000000
vn 0.000000 1.000000 -0.000000
vn 0.000000 1.000000 -0.000000
vn 0.000000 1.000000 0.000000
vn 0.000000 1.000000 0.000000
vn 0.000000 1.000000 -0.000000
vn 0.000000 1.000000 -0.000000
s off
g pCylinder2
usemtl initialShadingGroup
f 1/1/1 2/2/2 10/11/3 9/10/4
f 2/2/5 3/3/6 11/12/7 10/11/8
f 3/3/9 4/4/10 12/13/11 11/12/12
f 4/4/13 5/5/14 13/14/15 12/13/16
f 5/5/17 6/6/18 14/15/19 13/14/20
f 6/6/21 7/7/22 15/16/23 14/15/24
f 7/7/25 8/8/26 16/17/27 15/16/28
f 8/8/29 1/9/30 9/18/31 16/17/32
s 1
f 9/25/33 10/24/34 26/36/35 25/35/36
f 10/24/34 11/23/37 27/37/38 26/36/35
f 11/23/37 12/22/39 28/38/40 27/37/38
f 12/22/39 13/21/41 29/39/42 28/38/40
f 13/21/41 14/20/43 30/40/44 29/39/42
f 14/20/43 15/19/45 31/41/46 30/40/44
f 15/19/45 16/26/47 32/42/48 31/41/46
f 16/26/47 9/25/33 25/35/36 32/42/48
s off
f 18/27/49 17/28/50 25/35/51 26/36/52
f 17/28/53 24/34/54 32/42/55 25/35/56
f 24/34/57 23/33/58 31/41/59 32/42/60
f 23/33/61 22/32/62 30/40/63 31/41/64
f 22/32/65 21/31/66 29/39/67 30/40/68
f 21/31/69 20/30/70 28/38/71 29/39/72
f 20/30/73 19/29/74 27/37/75 28/38/76
f 19/29/77 18/27/78 26/36/79 27/37/80
s 2
f 23/33/81 33/43/82 22/32/83
f 18/27/84 19/29/85 33/43/82
f 33/43/82 19/29/85 20/30/86
f 33/43/82 20/30/86 21/31/87
f 33/43/82 21/31/87 22/32/83
f 24/34/88 33/43/82 23/33/81
f 17/28/89 33/43/82 24/34/88
f 18/27/84 33/43/82 17/28/89
