# This file uses centimeters as units for non-parametric coordinates.

mtllib Octagono_07.mtl
g default
v 4.255439 2.703122 -10.273539
v -4.255439 2.703122 -10.273539
v -10.273539 2.703122 -4.255439
v -10.273539 2.703122 4.255439
v -4.255439 2.703122 10.273539
v 4.255439 2.703122 10.273540
v 10.273540 2.703122 4.255439
v 10.273540 2.703122 -4.255440
v 4.089754 0.000000 -9.873539
v -4.089753 0.000000 -9.873539
v -9.873539 0.000000 -4.089753
v -9.873539 0.000000 4.089753
v -4.089753 0.000000 9.873539
v 4.089754 0.000000 9.873540
v 9.873540 0.000000 4.089754
v 9.873540 0.000000 -4.089754
v 4.089754 2.703122 -9.873539
v -4.089753 2.703122 -9.873539
v -9.873539 2.703122 -4.089753
v -9.873539 2.703122 4.089753
v -4.089753 2.703122 9.873539
v 4.089754 2.703122 9.873540
v 9.873540 2.703122 4.089754
v 9.873540 2.703122 -4.089754
v 0.750000 0.000000 10.273540
v -0.750000 0.000000 10.273540
v -0.750000 2.703122 10.273540
v 0.750000 2.703122 10.273540
v -0.750000 2.703122 9.873539
v 0.750000 2.703122 9.873539
v -0.750000 0.000000 9.873539
v 0.750000 0.000000 9.873539
v -0.750000 0.000000 20.000000
v 0.750000 0.000000 20.000000
v -0.750000 2.703122 10.273540
v -0.750000 2.703122 20.000000
v 0.750000 2.703122 10.273540
v 0.750000 2.703122 20.000000
v -1.249997 2.703122 10.273540
v -1.249997 2.703122 20.000000
v 1.250006 2.703122 10.273540
v 1.250005 2.703122 20.000000
v 1.250005 2.703122 9.873539
v 1.250004 0.000000 9.873539
v -1.249996 2.703122 9.873540
v -1.249994 0.000000 9.873539
v 0.000001 0.000000 0.000000
vt 0.610485 0.954235
vt 0.500000 1.000000
vt 0.500000 1.000000
vt 0.610485 0.954235
vt 0.389515 0.954235
vt 0.389515 0.954235
vt 0.343750 0.843750
vt 0.343750 0.843750
vt 0.389515 0.733265
vt 0.389515 0.733265
vt 0.500000 0.687500
vt 0.610485 0.733265
vt 0.610485 0.733265
vt 0.500000 0.687500
vt 0.656250 0.843750
vt 0.656250 0.843750
vt 0.500000 0.000000
vt 0.610485 0.045765
vt 0.656250 0.156250
vt 0.610485 0.266735
vt 0.500000 0.312500
vt 0.389515 0.266735
vt 0.343750 0.156250
vt 0.389515 0.045765
vt 0.439999 0.713825
vt 0.403327 0.727543
vt 0.403327 0.272457
vt 0.472376 0.698942
vt 0.497217 0.693914
vt 0.496552 0.691848
vt 0.486188 0.693221
vt 0.486188 0.306779
vt 0.472376 0.301058
vt 0.463166 0.704908
vt 0.508117 0.312500
vt 0.417139 0.278178
vt 0.417139 0.721822
vt 0.523133 0.312500
vt 0.000000 0.000000
vt 1.000000 0.000000
vt 1.000000 1.000000
vt 0.000000 1.000000
vt 0.000000 0.000000
vt 1.000000 0.000000
vt 1.000000 1.000000
vt 0.000000 1.000000
vt 0.000000 0.000000
vt 1.000000 0.000000
vt 1.000000 1.000000
vt 0.000000 1.000000
vt 0.000000 0.000000
vt 1.000000 0.000000
vt 0.999935 0.976435
vt 0.000000 1.000000
vt 0.000000 0.000000
vt 1.000000 0.000000
vt 1.000000 1.000000
vt -0.051095 0.975523
vt 0.486188 0.150529
vn 0.000000 1.000000 -0.000000
vn 0.000000 1.000000 0.000000
vn 0.000000 1.000000 0.000000
vn 0.000000 1.000000 -0.000000
vn 0.000000 1.000000 0.000000
vn 0.000000 1.000000 0.000000
vn 0.000000 1.000000 -0.000000
vn 0.000000 1.000000 -0.000000
vn 0.000000 1.000000 -0.000000
vn 0.000000 1.000000 -0.000000
vn 0.000000 1.000000 0.000000
vn 0.000000 1.000000 0.000000
vn 0.000000 1.000000 0.000000
vn 0.000000 1.000000 0.000000
vn 0.000000 1.000000 -0.000000
vn 0.000000 1.000000 -0.000000
vn 0.000000 0.000000 1.000000
vn 0.000000 0.000000 1.000000
vn 0.000000 0.000000 1.000000
vn 0.000000 0.000000 1.000000
vn -0.707107 0.000000 0.707107
vn -0.707107 0.000000 0.707107
vn -0.707107 0.000000 0.707107
vn -0.707107 0.000000 0.707107
vn -1.000000 0.000000 0.000000
vn -1.000000 0.000000 0.000000
vn -1.000000 0.000000 0.000000
vn -1.000000 0.000000 0.000000
vn -0.707107 0.000000 -0.707107
vn -0.707107 0.000000 -0.707107
vn -0.707107 0.000000 -0.707107
vn -0.707107 0.000000 -0.707107
vn 0.707107 0.000000 -0.707107
vn 0.707107 0.000000 -0.707107
vn 0.707107 0.000000 -0.707107
vn 0.707107 0.000000 -0.707107
vn 1.000000 0.000000 0.000000
vn 1.000000 0.000000 0.000000
vn 1.000000 0.000000 0.000000
vn 1.000000 0.000000 0.000000
vn 0.707107 0.000000 0.707107
vn 0.707107 0.000000 0.707107
vn 0.707107 0.000000 0.707107
vn 0.707107 0.000000 0.707107
vn 0.000000 1.000000 -0.000000
vn 0.000000 1.000000 -0.000000
vn 0.000000 0.000000 -1.000000
vn 0.000000 0.000000 -1.000000
vn 0.000000 0.000000 -1.000000
vn 0.000000 0.000000 -1.000000
vn 0.000000 1.000000 0.000000
vn 0.000000 1.000000 0.000000
vn 0.000000 1.000000 0.000000
vn 0.000000 1.000000 0.000000
vn 0.000000 -0.000000 -1.000000
vn 0.000000 -0.000000 -1.000000
vn 0.000000 0.000000 -1.000000
vn 0.000000 0.000000 -1.000000
vn 1.000000 0.000000 0.000001
vn 1.000000 0.000000 0.000001
vn 1.000000 0.000000 0.000001
vn 1.000000 0.000000 0.000001
vn -1.000000 0.000000 -0.000001
vn -1.000000 0.000000 -0.000001
vn -1.000000 0.000000 -0.000001
vn -1.000000 0.000000 -0.000001
vn 0.000000 1.000000 0.000000
vn 0.000000 1.000000 0.000000
vn 0.000000 1.000000 0.000000
vn 0.000000 1.000000 0.000000
vn 0.000000 1.000000 0.000000
vn 0.000000 1.000000 0.000000
vn 0.000000 1.000000 0.000000
vn 0.000000 1.000000 0.000000
vn 1.000000 0.000000 0.000000
vn 1.000000 0.000000 0.000000
vn 1.000000 0.000000 0.000000
vn 1.000000 0.000000 0.000000
vn -1.000000 0.000000 0.000000
vn -1.000000 0.000000 0.000000
vn -1.000000 0.000000 0.000000
vn -1.000000 0.000000 0.000000
vn 0.000000 1.000000 0.000000
vn 0.000000 1.000000 0.000000
vn 0.000000 1.000000 0.000000
vn 0.000000 1.000000 0.000000
vn 0.000000 1.000000 0.000000
vn 0.000000 1.000000 0.000000
vn 0.000000 1.000000 0.000000
vn 0.000000 1.000000 0.000000
vn 0.000000 -0.000000 -1.000000
vn 0.000000 -0.000000 -1.000000
vn 0.000000 1.000000 0.000000
vn 0.000000 1.000000 0.000000
vn 0.000000 0.000000 -1.000000
vn 0.000000 0.000000 -1.000000
vn 0.000000 1.000000 0.000000
vn 0.000000 1.000000 -0.000000
vn 0.000000 1.000000 0.000000
vn 0.000000 1.000000 -0.000000
vn 0.000000 1.000000 -0.000000
vn 0.000000 1.000000 0.000000
vn 0.000000 1.000000 0.000000
vn 0.000000 1.000000 -0.000000
vn 0.000000 1.000000 0.000000
vn 0.000000 1.000000 -0.000000
vn 0.000000 1.000000 -0.000000
vn 0.000000 1.000000 0.000000
vn 0.000000 1.000000 0.000000
s 1
g polySurface4
usemtl initialShadingGroup
f 1/1/1 2/2/2 18/3/3 17/4/4
f 2/2/2 3/5/5 19/6/6 18/3/3
f 3/5/5 4/7/7 20/8/8 19/6/6
f 4/7/7 5/9/9 21/10/10 20/8/8
f 6/11/11 7/12/12 23/13/13 22/14/14
f 7/12/12 8/15/15 24/16/16 23/13/13
f 8/15/15 1/1/1 17/4/4 24/16/16
s off
f 10/17/17 9/18/18 17/4/19 18/3/20
f 9/18/21 16/19/22 24/16/23 17/4/24
f 16/19/25 15/20/26 23/13/27 24/16/28
f 15/20/29 14/21/30 22/14/31 23/13/32
f 13/22/33 12/23/34 20/8/35 21/10/36
f 12/23/37 11/24/38 19/6/39 20/8/40
f 11/24/41 10/17/42 18/3/43 19/6/44
s 1
f 5/9/9 39/25/45 45/26/46 21/10/10
s 3
f 45/26/47 46/27/48 13/22/49 21/10/50
s 1
f 30/28/51 28/29/52 41/30/53 43/31/54
s 4
f 43/31/55 44/32/56 32/33/57 30/28/58
s off
f 27/34/59 26/35/60 31/36/61 29/37/62
f 25/38/63 28/29/64 30/28/65 32/33/66
f 31/36/67 26/35/68 25/38/69 32/33/70
f 25/39/71 26/40/72 33/41/73 34/42/74
f 33/43/75 26/44/76 35/45/77 36/46/78
f 25/47/79 34/48/80 38/49/81 37/50/82
f 36/51/83 35/52/84 39/53/85 40/54/86
f 37/55/87 38/56/88 42/57/89 41/58/90
s 1
f 43/31/54 41/30/53 6/11/11 22/14/14
s 4
f 14/21/91 44/32/56 43/31/55 22/14/92
s 1
f 45/26/46 39/25/45 27/34/93 29/37/94
s 3
f 29/37/95 31/36/96 46/27/48 45/26/47
s 5
f 44/32/97 47/59/98 32/33/99
f 10/17/100 11/24/101 47/59/98
f 47/59/98 11/24/101 12/23/102
f 47/59/98 12/23/102 13/22/103
f 47/59/98 13/22/103 46/27/104
f 47/59/98 46/27/104 31/36/105
f 47/59/98 31/36/105 32/33/99
f 14/21/106 47/59/98 44/32/97
f 15/20/107 47/59/98 14/21/106
f 16/19/108 47/59/98 15/20/107
f 9/18/109 47/59/98 16/19/108
f 10/17/100 47/59/98 9/18/109
