# This file uses centimeters as units for non-parametric coordinates.

mtllib Octagono_08.mtl
g default
v 4.255439 2.703122 -10.273539
v -4.255439 2.703122 -10.273539
v -10.273539 2.703122 -4.255439
v -10.273539 2.703122 4.255439
v -4.255439 2.703122 10.273539
v 4.255439 2.703122 10.273540
v 10.273540 2.703122 4.255439
v 10.273540 2.703122 -4.255440
v 4.089754 0.000000 -9.873539
v -4.089753 0.000000 -9.873539
v -9.873539 0.000000 -4.089753
v -9.873539 0.000000 4.089753
v -4.089753 0.000000 9.873539
v 4.089754 0.000000 9.873540
v 9.873540 0.000000 4.089754
v 9.873540 0.000000 -4.089754
v 4.089754 2.703122 -9.873539
v -4.089753 2.703122 -9.873539
v -9.873539 2.703122 -4.089753
v -9.873539 2.703122 4.089753
v -4.089753 2.703122 9.873539
v 4.089754 2.703122 9.873540
v 9.873540 2.703122 4.089754
v 9.873540 2.703122 -4.089754
v 0.750000 0.000000 10.273540
v -0.750000 0.000000 10.273540
v -0.750000 2.703122 10.273540
v 0.750000 2.703122 10.273540
v -0.750000 2.703122 9.873539
v 0.750000 2.703122 9.873539
v -0.750000 0.000000 9.873539
v 0.750000 0.000000 9.873539
v -0.750000 0.000000 15.000000
v 0.750000 0.000000 15.000000
v -0.750000 2.703122 10.273540
v -0.750000 2.703122 15.000000
v 0.750000 2.703122 10.273540
v 0.750000 2.703122 15.000000
v -1.249997 2.703122 10.273540
v 1.250006 2.703122 10.273540
v 1.250005 2.703122 9.873539
v 1.250004 0.000000 9.873539
v -1.249996 2.703122 9.873540
v -1.249994 0.000000 9.873539
v 0.000001 0.000000 0.000000
v -0.750000 0.000000 22.946045
v 0.750000 0.000000 22.946045
v -3.769241 0.000000 15.000000
v -3.769241 0.000000 22.946045
v 3.769241 0.000000 15.000000
v 3.769241 0.000000 22.946045
v -0.750000 2.703122 22.946045
v 0.750000 2.703122 22.946045
v -3.769241 2.703122 15.000000
v -3.769241 2.703122 22.946045
v 3.769241 2.703122 15.000000
v 3.769241 2.703122 22.946045
v -0.750000 2.703122 14.500000
v -4.269241 2.703122 14.500000
v 0.750000 2.703122 14.500000
v 4.269241 2.703122 14.500000
v -4.269241 2.703122 23.446045
v 4.269241 2.703122 23.446045
v -0.750000 2.703122 23.446045
v 0.750000 2.703122 23.446045
v 1.250005 2.703122 14.500000
v 1.250005 2.703122 15.000000
v 1.250005 0.000000 15.000000
v 1.250005 0.000000 22.946045
v 1.250005 2.703122 22.946045
v 1.250005 2.703122 23.446045
v 0.750000 0.000000 14.500000
v -0.750000 0.000000 14.500000
v -1.249997 2.703122 14.500000
v -1.249997 2.703122 23.446045
v -1.249997 2.703122 22.946045
v -1.249997 0.000000 22.946045
v -1.249997 0.000000 15.000000
v -1.249997 2.703122 15.000000
vt 0.610485 0.954235
vt 0.500000 1.000000
vt 0.500000 1.000000
vt 0.610485 0.954235
vt 0.389515 0.954235
vt 0.389515 0.954235
vt 0.343750 0.843750
vt 0.343750 0.843750
vt 0.389515 0.733265
vt 0.389515 0.733265
vt 0.500000 0.687500
vt 0.610485 0.733265
vt 0.610485 0.733265
vt 0.500000 0.687500
vt 0.656250 0.843750
vt 0.656250 0.843750
vt 0.500000 0.000000
vt 0.610485 0.045765
vt 0.656250 0.156250
vt 0.610485 0.266735
vt 0.500000 0.312500
vt 0.389515 0.266735
vt 0.343750 0.156250
vt 0.389515 0.045765
vt 0.439999 0.713825
vt 0.403327 0.727543
vt 0.403327 0.272457
vt 0.472376 0.698942
vt 0.497217 0.693914
vt 0.496552 0.691848
vt 0.486188 0.693221
vt 0.486188 0.306779
vt 0.472376 0.301058
vt 0.463166 0.704908
vt 0.508117 0.312500
vt 0.417139 0.278178
vt 0.417139 0.721822
vt 0.523133 0.312500
vt 0.000000 0.000000
vt 1.000000 0.000000
vt 1.000000 1.000000
vt 0.000000 1.000000
vt 0.000000 0.000000
vt 1.000000 0.000000
vt 1.000000 1.000000
vt -0.149188 0.999969
vt 0.000000 0.000000
vt 1.000000 0.000000
vt 1.267218 0.999984
vt 0.000000 1.000000
vt 1.000000 0.000000
vt 0.999935 0.976435
vt 0.000000 0.000000
vt -0.051095 0.975523
vt 0.486188 0.150529
vt 0.000000 0.000000
vt 1.000000 0.000000
vt 1.000000 1.000000
vt 0.000000 1.000000
vt 0.000000 0.000000
vt 1.000000 0.000000
vt 1.000000 1.000000
vt 0.000000 1.000000
vt 0.000000 0.000000
vt 1.000000 0.000000
vt 1.000000 1.000000
vt 0.000000 1.000000
vt 0.000000 0.000000
vt 1.000000 0.000000
vt 1.000000 1.000000
vt 0.000000 1.000000
vt 0.000000 0.000000
vt 1.000000 0.000000
vt 0.999900 0.999993
vt 0.000000 1.000000
vt 0.000000 0.000000
vt 1.000000 0.000000
vt 1.000000 1.000000
vt 0.000000 1.000000
vt 0.000000 0.000000
vt 1.000000 0.000000
vt 1.000000 1.000000
vt 0.000000 1.000000
vt 0.000000 0.000000
vt 1.000000 0.000000
vt 1.000000 1.000000
vt 0.000100 0.999993
vt 0.000000 0.000000
vt 1.000000 0.000000
vt 1.000000 1.000000
vt 0.000000 1.000000
vt 0.000000 0.000000
vt 1.000000 0.000000
vt 1.000000 1.000000
vt 0.000000 1.000000
vt 0.000000 0.000000
vt 0.979217 0.048543
vt 1.053797 1.193273
vt -0.078643 0.999785
vt 0.000100 0.000200
vt 1.000000 0.000000
vt 1.099231 0.999800
vt 0.000225 1.500181
vt 0.000000 0.000000
vt 1.000000 0.000000
vt 1.014777 0.999806
vt -0.024492 0.999757
vt 0.000000 0.000000
vt 1.000000 0.000000
vt 1.024492 0.999757
vt -0.014777 0.999806
vt 0.000000 0.000000
vt 1.000000 0.000000
vt 1.000000 1.000000
vt 0.000000 1.000000
vt 0.000000 0.000000
vt 1.000000 0.000000
vt 1.099231 0.999800
vt 0.000000 1.000000
vt 0.000000 0.000000
vt 1.000000 0.000000
vt 1.000000 1.000000
vt -0.099231 0.999800
vt 0.210741 1.482945
vt 0.500000 0.000000
vt 0.500000 1.000000
vt 0.500000 0.000000
vt 0.000000 0.500000
vt 1.000000 0.500000
vt 0.500000 0.000000
vt 0.500000 1.000000
vt 0.500000 0.000000
vt 0.500000 1.000000
vt 0.469667 0.985320
vt 0.506378 0.003256
vt 0.729344 0.999992
vt 0.500000 0.000000
vt 0.000000 0.500000
vt 1.000000 0.500000
vt 0.500000 0.000000
vt 0.349630 0.999997
vt 0.488935 0.002431
vt 0.455687 0.985373
vt 0.500000 1.000000
vt 0.500000 0.000000
vt 0.500000 1.000000
vt 0.500000 0.000000
vt 0.000000 0.500000
vt 1.000000 0.500000
vt 0.500000 0.000000
vt 0.500000 1.000000
vt 0.500000 0.000000
vt 0.636639 0.999900
vn 0.000000 1.000000 -0.000000
vn 0.000000 1.000000 0.000000
vn 0.000000 1.000000 0.000000
vn 0.000000 1.000000 -0.000000
vn 0.000000 1.000000 0.000000
vn 0.000000 1.000000 0.000000
vn 0.000000 1.000000 -0.000000
vn 0.000000 1.000000 -0.000000
vn 0.000000 1.000000 -0.000000
vn 0.000000 1.000000 -0.000000
vn 0.000000 1.000000 0.000000
vn 0.000000 1.000000 0.000000
vn 0.000000 1.000000 0.000000
vn 0.000000 1.000000 0.000000
vn 0.000000 1.000000 -0.000000
vn 0.000000 1.000000 -0.000000
vn 0.000000 0.000000 1.000000
vn 0.000000 0.000000 1.000000
vn 0.000000 0.000000 1.000000
vn 0.000000 0.000000 1.000000
vn -0.707107 0.000000 0.707107
vn -0.707107 0.000000 0.707107
vn -0.707107 0.000000 0.707107
vn -0.707107 0.000000 0.707107
vn -1.000000 0.000000 0.000000
vn -1.000000 0.000000 0.000000
vn -1.000000 0.000000 0.000000
vn -1.000000 0.000000 0.000000
vn -0.707107 0.000000 -0.707107
vn -0.707107 0.000000 -0.707107
vn -0.707107 0.000000 -0.707107
vn -0.707107 0.000000 -0.707107
vn 0.707107 0.000000 -0.707107
vn 0.707107 0.000000 -0.707107
vn 0.707107 0.000000 -0.707107
vn 0.707107 0.000000 -0.707107
vn 1.000000 0.000000 0.000000
vn 1.000000 0.000000 0.000000
vn 1.000000 0.000000 0.000000
vn 1.000000 0.000000 0.000000
vn 0.707107 0.000000 0.707107
vn 0.707107 0.000000 0.707107
vn 0.707107 0.000000 0.707107
vn 0.707107 0.000000 0.707107
vn 0.000000 1.000000 -0.000000
vn 0.000000 1.000000 -0.000000
vn 0.000000 0.000000 -1.000000
vn 0.000000 0.000000 -1.000000
vn 0.000000 0.000000 -1.000000
vn 0.000000 0.000000 -1.000000
vn 0.000000 1.000000 0.000000
vn 0.000000 1.000000 0.000000
vn 0.000000 1.000000 0.000000
vn 0.000000 1.000000 0.000000
vn 0.000000 -0.000000 -1.000000
vn 0.000000 -0.000000 -1.000000
vn 0.000000 0.000000 -1.000000
vn 0.000000 0.000000 -1.000000
vn 1.000000 0.000000 0.000001
vn 1.000000 0.000000 0.000001
vn 1.000000 0.000000 0.000001
vn 1.000000 0.000000 0.000001
vn -1.000000 0.000000 -0.000001
vn -1.000000 0.000000 -0.000001
vn -1.000000 0.000000 -0.000001
vn -1.000000 0.000000 -0.000001
vn 0.000000 1.000000 0.000000
vn 0.000000 1.000000 0.000000
vn 0.000000 1.000000 0.000000
vn 0.000000 1.000000 0.000000
vn 0.000000 1.000000 0.000000
vn 0.000000 1.000000 0.000000
vn 0.000000 1.000000 0.000000
vn 0.000000 1.000000 0.000000
vn 1.000000 0.000000 -0.000000
vn 1.000000 0.000000 0.000000
vn 1.000000 0.000000 0.000000
vn 1.000000 0.000000 -0.000000
vn -1.000000 0.000000 0.000000
vn -1.000000 0.000000 0.000000
vn -1.000000 0.000000 -0.000000
vn -1.000000 0.000000 -0.000000
vn 0.000000 -0.000000 -1.000000
vn 0.000000 -0.000000 -1.000000
vn 0.000000 1.000000 0.000000
vn 0.000000 1.000000 0.000000
vn 0.000000 0.000000 -1.000000
vn 0.000000 0.000000 -1.000000
vn 0.000000 1.000000 0.000000
vn 0.000000 1.000000 -0.000000
vn 0.000000 1.000000 0.000000
vn 0.000000 1.000000 -0.000000
vn 0.000000 1.000000 -0.000000
vn 0.000000 1.000000 0.000000
vn 0.000000 1.000000 0.000000
vn 0.000000 1.000000 -0.000000
vn 0.000000 1.000000 0.000000
vn 0.000000 1.000000 -0.000000
vn 0.000000 1.000000 -0.000000
vn 0.000000 1.000000 0.000000
vn 0.000000 1.000000 0.000000
vn 0.000000 1.000000 0.000000
vn 0.000000 1.000000 0.000000
vn 0.000000 1.000000 0.000000
vn 0.000000 1.000000 0.000000
vn 0.000000 1.000000 0.000000
vn 0.000000 1.000000 0.000000
vn 0.000000 1.000000 0.000000
vn 0.000000 1.000000 0.000000
vn 0.000000 1.000000 0.000000
vn 0.000000 1.000000 0.000000
vn 0.000000 1.000000 0.000000
vn 0.000000 1.000000 0.000000
vn 0.000000 0.000000 -1.000000
vn 0.000000 0.000000 -1.000000
vn 0.000000 0.000000 -1.000000
vn 0.000000 0.000000 -1.000000
vn 0.000000 0.000000 1.000000
vn 0.000000 0.000000 1.000000
vn 0.000000 0.000000 1.000000
vn 0.000000 0.000000 1.000000
vn 0.000000 0.000000 -1.000000
vn 0.000000 0.000000 -1.000000
vn 0.000000 0.000000 -1.000000
vn 0.000000 0.000000 -1.000000
vn 1.000000 0.000000 0.000000
vn 1.000000 0.000000 0.000000
vn 1.000000 0.000000 0.000000
vn 1.000000 0.000000 0.000000
vn 0.000000 0.000000 1.000000
vn 0.000000 0.000000 1.000000
vn 0.000000 0.000000 1.000000
vn 0.000000 0.000000 1.000000
vn 0.000000 0.000000 -1.000000
vn 0.000000 0.000000 -1.000000
vn 0.000000 0.000000 -1.000000
vn 0.000000 0.000000 -1.000000
vn -1.000000 0.000000 0.000000
vn -1.000000 0.000000 0.000000
vn -1.000000 0.000000 0.000000
vn -1.000000 0.000000 0.000000
vn 0.000000 1.000000 0.000000
vn 0.000000 1.000000 0.000000
vn 0.000000 1.000000 0.000000
vn 0.000000 1.000000 0.000000
vn 0.000000 1.000000 -0.000000
vn 0.000000 1.000000 -0.000000
vn 0.000000 1.000000 0.000000
vn 0.000000 1.000000 0.000000
vn 0.000000 1.000000 0.000000
vn 0.000000 1.000000 0.000000
vn 0.000000 1.000000 0.000000
vn 0.000000 1.000000 0.000000
vn 0.000000 1.000000 0.000000
vn 0.000000 1.000000 0.000000
vn 0.000000 1.000000 0.000000
vn 0.000000 1.000000 0.000000
vn 0.000000 1.000000 0.000000
vn 0.000000 1.000000 0.000000
vn 0.000000 1.000000 0.000000
vn 0.000000 1.000000 0.000000
vn 0.000000 1.000000 0.000000
vn 0.000000 1.000000 0.000000
vn 0.000000 1.000000 0.000000
vn 0.000000 1.000000 0.000000
vn 0.000000 1.000000 0.000000
vn 0.000000 1.000000 0.000000
vn 0.000000 1.000000 0.000000
vn 0.000000 1.000000 0.000000
vn 0.000000 1.000000 -0.000000
vn 0.000000 1.000000 -0.000000
vn 0.000000 0.000000 1.000000
vn 0.000000 0.000000 1.000000
vn 0.000000 0.000000 -1.000000
vn 0.000000 0.000000 -1.000000
vn 0.000000 1.000000 0.000000
vn 0.000000 1.000000 0.000000
vn 0.000000 1.000000 0.000000
vn 0.000000 1.000000 0.000000
vn -1.000000 0.000000 0.000000
vn -1.000000 0.000000 0.000000
vn 0.000000 1.000000 0.000000
vn 0.000000 1.000000 0.000000
vn 1.000000 0.000000 0.000000
vn 1.000000 0.000000 0.000000
vn 0.000000 1.000000 0.000000
vn 0.000000 1.000000 0.000000
vn 0.000000 1.000000 0.000000
vn 0.000000 1.000000 0.000000
vn 0.000000 0.000000 -1.000000
vn 0.000000 0.000000 -1.000000
vn 0.000000 0.000000 1.000000
vn 0.000000 0.000000 1.000000
vn 0.000000 1.000000 0.000000
vn 0.000000 1.000000 0.000000
s 1
g polySurface7
usemtl initialShadingGroup
f 1/1/1 2/2/2 18/3/3 17/4/4
f 2/2/2 3/5/5 19/6/6 18/3/3
f 3/5/5 4/7/7 20/8/8 19/6/6
f 4/7/7 5/9/9 21/10/10 20/8/8
f 6/11/11 7/12/12 23/13/13 22/14/14
f 7/12/12 8/15/15 24/16/16 23/13/13
f 8/15/15 1/1/1 17/4/4 24/16/16
s off
f 10/17/17 9/18/18 17/4/19 18/3/20
f 9/18/21 16/19/22 24/16/23 17/4/24
f 16/19/25 15/20/26 23/13/27 24/16/28
f 15/20/29 14/21/30 22/14/31 23/13/32
f 13/22/33 12/23/34 20/8/35 21/10/36
f 12/23/37 11/24/38 19/6/39 20/8/40
f 11/24/41 10/17/42 18/3/43 19/6/44
s 1
f 5/9/9 39/25/45 43/26/46 21/10/10
s 3
f 43/26/47 44/27/48 13/22/49 21/10/50
s 1
f 30/28/51 28/29/52 40/30/53 41/31/54
s 4
f 41/31/55 42/32/56 32/33/57 30/28/58
s off
f 27/34/59 26/35/60 31/36/61 29/37/62
f 25/38/63 28/29/64 30/28/65 32/33/66
f 31/36/67 26/35/68 25/38/69 32/33/70
s 5
f 72/138/71 73/139/72 33/41/73 34/42/74
s 6
f 33/43/75 73/140/76 58/141/77 36/46/78
s 7
f 60/136/79 72/137/80 34/48/81 38/49/82
s 1
f 41/31/54 40/30/53 6/11/11 22/14/14
s 4
f 14/21/83 42/32/56 41/31/55 22/14/84
s 1
f 43/26/46 39/25/45 27/34/85 29/37/86
s 3
f 29/37/87 31/36/88 44/27/48 43/26/47
s 8
f 42/32/89 45/55/90 32/33/91
f 10/17/92 11/24/93 45/55/90
f 45/55/90 11/24/93 12/23/94
f 45/55/90 12/23/94 13/22/95
f 45/55/90 13/22/95 44/27/96
f 45/55/90 44/27/96 31/36/97
f 45/55/90 31/36/97 32/33/91
f 14/21/98 45/55/90 42/32/89
f 15/20/99 45/55/90 14/21/98
f 16/19/100 45/55/90 15/20/99
f 9/18/101 45/55/90 16/19/100
f 10/17/92 45/55/90 9/18/101
s 10
f 34/56/102 33/57/103 46/58/104 47/59/105
f 77/148/106 78/149/107 48/62/108 49/63/109
f 68/128/110 69/129/111 51/66/112 50/67/113
s off
f 47/68/114 46/69/115 52/70/116 53/71/117
s 11
f 48/72/118 78/150/119 79/151/120 54/75/121
s 12
f 76/146/122 77/147/123 49/77/124 55/78/125
s off
f 49/80/126 48/81/127 54/82/128 55/83/129
s 13
f 67/126/130 68/127/131 50/85/132 56/86/133
s 14
f 51/88/134 69/130/135 70/131/136 57/91/137
s off
f 50/92/138 51/93/139 57/94/140 56/95/141
s 15
f 54/96/142 79/152/143 74/153/144 59/99/145
s 16
f 66/124/146 67/125/147 56/101/148 61/102/149
s off
f 55/104/150 54/105/151 59/106/152 62/107/153
f 56/108/154 57/109/155 63/110/156 61/111/157
s 17
f 53/112/158 52/113/159 64/114/160 65/115/161
f 75/144/162 76/145/163 55/117/164 62/118/165
f 57/120/166 70/132/167 71/133/168 63/123/169
s 16
f 38/100/170 67/125/147 66/124/146 60/103/171
s 13
f 34/84/172 68/127/131 67/126/130 38/87/173
s 10
f 34/64/102 47/65/105 69/129/111 68/128/110
s 14
f 70/131/136 69/130/135 47/89/174 53/90/175
s 17
f 71/133/168 70/132/167 53/121/158 65/122/161
s off
f 37/53/176 60/135/177 66/134/178 40/54/179
s 7
f 25/47/180 72/137/80 60/136/79 37/50/181
s 5
f 25/39/182 26/40/183 73/139/72 72/138/71
s 6
f 58/141/77 73/140/76 26/44/184 35/45/185
s off
f 74/143/186 58/142/187 35/51/188 39/52/189
s 17
f 52/116/159 76/145/163 75/144/162 64/119/160
s 12
f 46/76/190 77/147/123 76/146/122 52/79/191
s 10
f 46/60/104 33/61/103 78/149/107 77/148/106
s 11
f 79/151/120 78/150/119 33/73/192 36/74/193
s 15
f 74/153/144 79/152/143 36/97/194 58/98/195
g default
v -5.500000 0.000000 5.500000
v -4.500000 0.000000 5.500000
v -5.500000 1.823385 5.500000
v -4.500000 1.823385 5.500000
v -5.500000 1.823385 4.500000
v -4.500000 1.823385 4.500000
v -5.500000 0.000000 4.500000
v -4.500000 0.000000 4.500000
v -5.500000 0.000000 -4.500000
v -4.500000 0.000000 -4.500000
v -5.500000 1.823385 -4.500000
v -4.500000 1.823385 -4.500000
v -5.500000 1.823385 -5.500000
v -4.500000 1.823385 -5.500000
v -5.500000 0.000000 -5.500000
v -4.500000 0.000000 -5.500000
v 4.500000 0.000000 -4.500000
v 5.500000 0.000000 -4.500000
v 4.500000 1.823385 -4.500000
v 5.500000 1.823385 -4.500000
v 4.500000 1.823385 -5.500000
v 5.500000 1.823385 -5.500000
v 4.500000 0.000000 -5.500000
v 5.500000 0.000000 -5.500000
v 4.500000 0.000000 5.500000
v 5.500000 0.000000 5.500000
v 4.500000 1.823385 5.500000
v 5.500000 1.823385 5.500000
v 4.500000 1.823385 4.500000
v 5.500000 1.823385 4.500000
v 4.500000 0.000000 4.500000
v 5.500000 0.000000 4.500000
vt 0.375000 0.000000
vt 0.625000 0.000000
vt 0.375000 0.250000
vt 0.625000 0.250000
vt 0.375000 0.500000
vt 0.625000 0.500000
vt 0.375000 0.750000
vt 0.625000 0.750000
vt 0.375000 1.000000
vt 0.625000 1.000000
vt 0.875000 0.000000
vt 0.875000 0.250000
vt 0.125000 0.000000
vt 0.125000 0.250000
vt 0.375000 0.000000
vt 0.625000 0.000000
vt 0.625000 0.250000
vt 0.375000 0.250000
vt 0.625000 0.500000
vt 0.375000 0.500000
vt 0.625000 0.750000
vt 0.375000 0.750000
vt 0.625000 1.000000
vt 0.375000 1.000000
vt 0.875000 0.000000
vt 0.875000 0.250000
vt 0.125000 0.000000
vt 0.125000 0.250000
vt 0.375000 0.000000
vt 0.625000 0.000000
vt 0.625000 0.250000
vt 0.375000 0.250000
vt 0.625000 0.500000
vt 0.375000 0.500000
vt 0.625000 0.750000
vt 0.375000 0.750000
vt 0.625000 1.000000
vt 0.375000 1.000000
vt 0.875000 0.000000
vt 0.875000 0.250000
vt 0.125000 0.000000
vt 0.125000 0.250000
vt 0.375000 0.000000
vt 0.625000 0.000000
vt 0.625000 0.250000
vt 0.375000 0.250000
vt 0.625000 0.500000
vt 0.375000 0.500000
vt 0.625000 0.750000
vt 0.375000 0.750000
vt 0.625000 1.000000
vt 0.375000 1.000000
vt 0.875000 0.000000
vt 0.875000 0.250000
vt 0.125000 0.000000
vt 0.125000 0.250000
vn 0.000000 0.000000 1.000000
vn 0.000000 0.000000 1.000000
vn 0.000000 0.000000 1.000000
vn 0.000000 0.000000 1.000000
vn 0.000000 1.000000 0.000000
vn 0.000000 1.000000 0.000000
vn 0.000000 1.000000 0.000000
vn 0.000000 1.000000 0.000000
vn 0.000000 0.000000 -1.000000
vn 0.000000 0.000000 -1.000000
vn 0.000000 0.000000 -1.000000
vn 0.000000 0.000000 -1.000000
vn 0.000000 -1.000000 0.000000
vn 0.000000 -1.000000 0.000000
vn 0.000000 -1.000000 0.000000
vn 0.000000 -1.000000 0.000000
vn 1.000000 0.000000 0.000000
vn 1.000000 0.000000 0.000000
vn 1.000000 0.000000 0.000000
vn 1.000000 0.000000 0.000000
vn -1.000000 0.000000 0.000000
vn -1.000000 0.000000 0.000000
vn -1.000000 0.000000 0.000000
vn -1.000000 0.000000 0.000000
vn 0.000000 0.000000 1.000000
vn 0.000000 0.000000 1.000000
vn 0.000000 0.000000 1.000000
vn 0.000000 0.000000 1.000000
vn 0.000000 1.000000 0.000000
vn 0.000000 1.000000 0.000000
vn 0.000000 1.000000 0.000000
vn 0.000000 1.000000 0.000000
vn 0.000000 0.000000 -1.000000
vn 0.000000 0.000000 -1.000000
vn 0.000000 0.000000 -1.000000
vn 0.000000 0.000000 -1.000000
vn 0.000000 -1.000000 0.000000
vn 0.000000 -1.000000 0.000000
vn 0.000000 -1.000000 0.000000
vn 0.000000 -1.000000 0.000000
vn 1.000000 0.000000 0.000000
vn 1.000000 0.000000 0.000000
vn 1.000000 0.000000 0.000000
vn 1.000000 0.000000 0.000000
vn -1.000000 0.000000 0.000000
vn -1.000000 0.000000 0.000000
vn -1.000000 0.000000 0.000000
vn -1.000000 0.000000 0.000000
vn 0.000000 0.000000 1.000000
vn 0.000000 0.000000 1.000000
vn 0.000000 0.000000 1.000000
vn 0.000000 0.000000 1.000000
vn 0.000000 1.000000 0.000000
vn 0.000000 1.000000 0.000000
vn 0.000000 1.000000 0.000000
vn 0.000000 1.000000 0.000000
vn 0.000000 0.000000 -1.000000
vn 0.000000 0.000000 -1.000000
vn 0.000000 0.000000 -1.000000
vn 0.000000 0.000000 -1.000000
vn 0.000000 -1.000000 0.000000
vn 0.000000 -1.000000 0.000000
vn 0.000000 -1.000000 0.000000
vn 0.000000 -1.000000 0.000000
vn 1.000000 0.000000 0.000000
vn 1.000000 0.000000 0.000000
vn 1.000000 0.000000 0.000000
vn 1.000000 0.000000 0.000000
vn -1.000000 0.000000 0.000000
vn -1.000000 0.000000 0.000000
vn -1.000000 0.000000 0.000000
vn -1.000000 0.000000 0.000000
vn 0.000000 0.000000 1.000000
vn 0.000000 0.000000 1.000000
vn 0.000000 0.000000 1.000000
vn 0.000000 0.000000 1.000000
vn 0.000000 1.000000 0.000000
vn 0.000000 1.000000 0.000000
vn 0.000000 1.000000 0.000000
vn 0.000000 1.000000 0.000000
vn 0.000000 0.000000 -1.000000
vn 0.000000 0.000000 -1.000000
vn 0.000000 0.000000 -1.000000
vn 0.000000 0.000000 -1.000000
vn 0.000000 -1.000000 0.000000
vn 0.000000 -1.000000 0.000000
vn 0.000000 -1.000000 0.000000
vn 0.000000 -1.000000 0.000000
vn 1.000000 0.000000 0.000000
vn 1.000000 0.000000 0.000000
vn 1.000000 0.000000 0.000000
vn 1.000000 0.000000 0.000000
vn -1.000000 0.000000 0.000000
vn -1.000000 0.000000 0.000000
vn -1.000000 0.000000 0.000000
vn -1.000000 0.000000 0.000000
s off
g pCube6
usemtl initialShadingGroup
f 80/154/196 81/155/197 83/157/198 82/156/199
f 82/156/200 83/157/201 85/159/202 84/158/203
f 84/158/204 85/159/205 87/161/206 86/160/207
f 86/160/208 87/161/209 81/163/210 80/162/211
f 81/155/212 87/164/213 85/165/214 83/157/215
f 86/166/216 80/154/217 82/156/218 84/167/219
f 88/168/220 89/169/221 91/170/222 90/171/223
f 90/171/224 91/170/225 93/172/226 92/173/227
f 92/173/228 93/172/229 95/174/230 94/175/231
f 94/175/232 95/174/233 89/176/234 88/177/235
f 89/169/236 95/178/237 93/179/238 91/170/239
f 94/180/240 88/168/241 90/171/242 92/181/243
f 96/182/244 97/183/245 99/184/246 98/185/247
f 98/185/248 99/184/249 101/186/250 100/187/251
f 100/187/252 101/186/253 103/188/254 102/189/255
f 102/189/256 103/188/257 97/190/258 96/191/259
f 97/183/260 103/192/261 101/193/262 99/184/263
f 102/194/264 96/182/265 98/185/266 100/195/267
f 104/196/268 105/197/269 107/198/270 106/199/271
f 106/199/272 107/198/273 109/200/274 108/201/275
f 108/201/276 109/200/277 111/202/278 110/203/279
f 110/203/280 111/202/281 105/204/282 104/205/283
f 105/197/284 111/206/285 109/207/286 107/198/287
f 110/208/288 104/196/289 106/199/290 108/209/291
g default
v -0.500000 0.000000 0.500000
v 0.500000 0.000000 0.500000
v -0.500000 0.274529 0.500000
v 0.500000 0.274529 0.500000
v -0.500000 0.274529 -0.500000
v 0.500000 0.274529 -0.500000
v -0.500000 0.000000 -0.500000
v 0.500000 0.000000 -0.500000
vt 0.375000 0.000000
vt 0.625000 0.000000
vt 0.375000 0.250000
vt 0.625000 0.250000
vt 0.375000 0.500000
vt 0.625000 0.500000
vt 0.375000 0.750000
vt 0.625000 0.750000
vt 0.375000 1.000000
vt 0.625000 1.000000
vt 0.875000 0.000000
vt 0.875000 0.250000
vt 0.125000 0.000000
vt 0.125000 0.250000
vn 0.000000 0.000000 1.000000
vn 0.000000 0.000000 1.000000
vn 0.000000 0.000000 1.000000
vn 0.000000 0.000000 1.000000
vn 0.000000 1.000000 0.000000
vn 0.000000 1.000000 0.000000
vn 0.000000 1.000000 0.000000
vn 0.000000 1.000000 0.000000
vn 0.000000 0.000000 -1.000000
vn 0.000000 0.000000 -1.000000
vn 0.000000 0.000000 -1.000000
vn 0.000000 0.000000 -1.000000
vn 0.000000 -1.000000 0.000000
vn 0.000000 -1.000000 0.000000
vn 0.000000 -1.000000 0.000000
vn 0.000000 -1.000000 0.000000
vn 1.000000 0.000000 0.000000
vn 1.000000 0.000000 0.000000
vn 1.000000 0.000000 0.000000
vn 1.000000 0.000000 0.000000
vn -1.000000 0.000000 0.000000
vn -1.000000 0.000000 0.000000
vn -1.000000 0.000000 0.000000
vn -1.000000 0.000000 0.000000
s off
g pCube1
usemtl initialShadingGroup
f 112/210/292 113/211/293 115/213/294 114/212/295
f 114/212/296 115/213/297 117/215/298 116/214/299
f 116/214/300 117/215/301 119/217/302 118/216/303
f 118/216/304 119/217/305 113/219/306 112/218/307
f 113/211/308 119/220/309 117/221/310 115/213/311
f 118/222/312 112/210/313 114/212/314 116/223/315
